<?xml version="1.0" encoding="utf-8"?>
<!-- Generator: Adobe Illustrator 26.3.1, SVG Export Plug-In . SVG Version: 6.00 Build 0)  -->
<svg version="1.1" id="Layer_1" xmlns="http://www.w3.org/2000/svg" xmlns:xlink="http://www.w3.org/1999/xlink" x="0px" y="0px"
	 viewBox="0 0 780 769" style="enable-background:new 0 0 780 769;" xml:space="preserve">
<style type="text/css">
	.st0{fill:none;stroke:#CCCCCC;}
	.st1{font-family:'ArialMT';}
	.st2{font-size:16px;}
	.st3{fill:#00AE8D;}
	.st4{fill:#C19ADE;}
	.st5{fill:#C5A900;}
	.st6{fill:#1F77B4;}
	.st7{fill:#2CA02C;}
	.st8{fill:#8C564B;}
	.st9{fill:#D62728;}
	.st10{fill:#7F7F7F;}
	.st11{font-family:'Arial-BoldMT';}
	.st12{font-size:14px;}
</style>
<path id="p_822" class="st0" d="M385.2,603C184.9,603,22.4,474,22.4,314.8S184.9,26.6,385.2,26.6S748,155.6,748,314.8
	S585.5,603,385.2,603z"/>
<path id="p_621.751298647037" class="st0" d="M364,406.1c-67.5,0-122.2-43.4-122.2-97.1s54.8-97.1,122.2-97.1l0,0
	c67.5,0,122.2,43.4,122.2,97.1S431.7,406.1,364,406.1L364,406.1z"/>
<text transform="matrix(1.2587 0 0 1 45.415 329.1846)" class="st1 st2">Andreessen Horowitz</text>
<path id="p_803.648439056236" class="st0" d="M612,403.3c-65.5,0-118.8-42.2-118.8-94.3s53.2-94.3,118.8-94.3s118.8,42.2,118.8,94.3
	S677.5,403.3,612,403.3z"/>
<text transform="matrix(1.2587 0 0 1 589.0918 195.1074)" class="st1 st2">Tiger Global </text>
<text transform="matrix(1.2587 0 0 1 589.0918 213.1074)" class="st1 st2">Management</text>
<path id="p_877.0203476618354" class="st0" d="M491.5,577.3c-67.2,0-121.7-43.3-121.7-96.7s54.5-96.7,121.7-96.7
	s121.7,43.3,121.7,96.7C613.2,533.9,558.7,577.3,491.5,577.3z"/>
<text transform="matrix(1.2587 0 0 1 223.7202 488.9141)" class="st1 st2">Insight Partners</text>
<path id="p_556.9516577800662" class="st0" d="M491.2,235.8c-59.6,0-107.8-38.4-107.8-85.8s48.3-85.8,107.8-85.8S599,102.6,599,150
	S551,235.8,491.2,235.8z"/>
<text transform="matrix(1.2587 0 0 1 467.1729 60.332)" class="st1 st2">Accel</text>
<path id="p_379.96257812681415" class="st0" d="M271.5,221.5c-58.3,0-105.6-37.5-105.6-83.9s47.3-83.9,105.5-83.9l0,0
	c58.3,0,105.6,37.5,105.6,83.9S329.9,221.4,271.5,221.5L271.5,221.5z"/>
<text transform="matrix(1.2587 0 0 1 284.625 53.168)" class="st1 st2">Sequoia Capital</text>
<path id="p_549.0252586129702" class="st3" d="M329.1,356.2c-34.3,0-62.1-22.1-62.1-49.3c0-27.3,27.8-49.3,62.1-49.3l0,0
	c34.3,0,62.1,22.1,62.1,49.3C391.1,334.1,363.4,356.2,329.1,356.2L329.1,356.2z"/>
<path id="p_614.6801002821256" class="st4" d="M437.7,339.1c-22.4,0-40.6-14.5-40.6-32.3s18.3-32.3,40.6-32.3l0,0
	c22.4,0,40.6,14.5,40.6,32.3C478.4,324.6,460.2,339.1,437.7,339.1L437.7,339.1z"/>
<path id="p_635.0763755081975" class="st5" d="M401.8,390.3c-18.4,0-33.2-11.8-33.2-26.4s14.9-26.4,33.2-26.4l0,0
	c18.4,0,33.2,11.8,33.2,26.4C435,378.4,420.2,390.3,401.8,390.3L401.8,390.3z"/>
<path id="p_528.722254077444" class="st6" d="M399.9,278.3c-13,0-23.5-8.4-23.5-18.7c0-10.4,10.5-18.7,23.5-18.7s23.5,8.4,23.5,18.7
	C423.4,270,412.9,278.3,399.9,278.3z"/>
<path id="p_473.2866277174421" class="st7" d="M354.8,254.9c-13,0-23.5-8.4-23.5-18.7s10.5-18.7,23.5-18.7s23.5,8.4,23.5,18.7
	S367.8,254.9,354.8,254.9z"/>
<path id="p_597.6668717769836" class="st8" d="M341.4,398.3c-13,0-23.5-8.4-23.5-18.7c0-10.4,10.5-18.7,23.5-18.7
	s23.5,8.4,23.5,18.7S354.4,398.3,341.4,398.3z"/>
<path id="p_725.9224999131281" class="st3" d="M565.5,357.3c-31.8,0-57.5-20.5-57.5-45.7s25.7-45.7,57.5-45.7s57.5,20.5,57.5,45.7
	S597.2,357.3,565.5,357.3z"/>
<path id="p_800.9439730404491" class="st4" d="M675.8,348.8c-26,0-47-16.7-47-37.3s21-37.3,47-37.3s47,16.7,47,37.3
	S701.8,348.8,675.8,348.8z"/>
<path id="p_810.342068587812" class="st5" d="M629.9,396.2c-18.4,0-33.2-11.8-33.2-26.4s14.9-26.4,33.2-26.4l0,0
	c18.4,0,33.2,11.8,33.2,26.4C663.1,384.4,648.2,396.2,629.9,396.2L629.9,396.2z"/>
<path id="p_702.6541569001632" class="st6" d="M629,282c-13,0-23.5-8.4-23.5-18.7c0-10.4,10.5-18.7,23.5-18.7s23.5,8.4,23.5,18.7
	C652.5,273.6,642,282,629,282z"/>
<path id="p_648.3432915986699" class="st9" d="M581.7,261.6c-13,0-23.5-8.4-23.5-18.7s10.5-18.7,23.5-18.7s23.5,8.4,23.5,18.7
	S594.5,261.6,581.7,261.6z"/>
<path id="p_790.8013632224262" class="st5" d="M458.2,511.8c-26,0-47-16.7-47-37.3s21-37.3,47-37.3s47,16.7,47,37.3
	C505.1,495.1,484.1,511.8,458.2,511.8z"/>
<path id="p_865.822836349747" class="st3" d="M559,511.8c-26,0-47-16.7-47-37.3s21-37.3,47-37.3s47,16.7,47,37.3
	S584.9,511.8,559,511.8z"/>
<path id="p_883.1300531916281" class="st4" d="M507.5,570.3c-22.4,0-40.6-14.5-40.6-32.3s18.3-32.3,40.6-32.3l0,0
	c22.4,0,40.6,14.5,40.6,32.3C548.3,555.8,530.1,570.3,507.5,570.3L507.5,570.3z"/>
<path id="p_767.197124768892" class="st9" d="M508.5,446.5c-13,0-23.5-8.4-23.5-18.7c0-10.4,10.5-18.7,23.5-18.7s23.5,8.4,23.5,18.7
	S521.5,446.5,508.5,446.5z"/>
<path id="p_715.7168305614741" class="st10" d="M458.1,431.7c-13,0-23.5-8.4-23.5-18.7c0-10.4,10.5-18.7,23.5-18.7
	s23.5,8.4,23.5,18.7C481.6,423.3,471.1,431.7,458.1,431.7z"/>
<path id="p_459.5149836788359" class="st4" d="M439.9,171.8c-26,0-47-16.7-47-37.3s21-37.3,47-37.3s47,16.7,47,37.3
	S465.9,171.8,439.9,171.8z"/>
<path id="p_534.5364568061568" class="st3" d="M541.7,171.8c-26,0-47-16.7-47-37.3s21-37.3,47-37.3s47,16.7,47,37.3
	S567.7,171.8,541.7,171.8z"/>
<path id="p_551.8436736480379" class="st6" d="M491.2,230.3c-22.4,0-40.6-14.5-40.6-32.3s18.3-32.3,40.6-32.3l0,0
	c22.4,0,40.6,14.5,40.6,32.3S513.8,230.3,491.2,230.3C491.4,230.3,491.4,230.3,491.2,230.3z"/>
<path id="p_318.60924493021366" class="st3" d="M227.7,190.8c-29,0-52.5-18.7-52.5-41.7c0-23.1,23.5-41.8,52.5-41.8l0,0
	c29,0,52.5,18.7,52.5,41.7S256.8,190.8,227.7,190.8L227.7,190.8z"/>
<path id="p_384.26408659936914" class="st4" d="M326.7,181.4c-22.4,0-40.6-14.5-40.6-32.3s18.3-32.3,40.6-32.3l0,0
	c22.4,0,40.6,14.5,40.6,32.3C367.5,166.9,349.2,181.4,326.7,181.4L326.7,181.4z"/>
<path id="p_384.2144825442522" class="st6" d="M286.8,213.8c-13,0-23.5-8.4-23.5-18.7s10.5-18.7,23.5-18.7s23.5,8.4,23.5,18.7
	S299.8,213.8,286.8,213.8z"/>
<path id="p_297.80854397237675" class="st5" d="M286.8,121.6c-13,0-23.5-8.4-23.5-18.7s10.5-18.7,23.5-18.7s23.5,8.4,23.5,18.7
	S299.8,121.6,286.8,121.6z"/>
<path id="p_244.0537689383821" class="st8" d="M238.6,102.5c-13,0-23.5-8.4-23.5-18.7s10.5-18.7,23.5-18.7s23.5,8.4,23.5,18.7
	S251.6,102.5,238.6,102.5z"/>
<text transform="matrix(1.2587 0 0 1 325.3291 300.8789)" class="st11 st12">7</text>
<text transform="matrix(1.2587 0 0 1 435.001 300.8789)" class="st11 st12">3</text>
<text transform="matrix(1.2587 0 0 1 398.0645 357.9248)" class="st11 st12">2</text>
<text transform="matrix(1.2587 0 0 1 396.1602 253.6396)" class="st11 st12">1</text>
<text transform="matrix(1.2587 0 0 1 351.0479 230.3047)" class="st11 st12">1</text>
<text transform="matrix(1.2587 0 0 1 337.6826 373.6924)" class="st11 st12">1</text>
<text transform="matrix(1.2587 0 0 1 561.7139 305.5723)" class="st11 st12">6</text>
<text transform="matrix(1.2587 0 0 1 673.0713 305.5723)" class="st11 st12">4</text>
<text transform="matrix(1.2587 0 0 1 626.1445 363.8135)" class="st11 st12">2</text>
<text transform="matrix(1.2587 0 0 1 625.2227 257.3242)" class="st11 st12">1</text>
<text transform="matrix(1.2587 0 0 1 577.8896 236.9531)" class="st11 st12">1</text>
<text transform="matrix(1.2587 0 0 1 454.4336 468.4414)" class="st11 st12">4</text>
<text transform="matrix(1.2587 0 0 1 555.2344 468.4414)" class="st11 st12">4</text>
<text transform="matrix(1.2587 0 0 1 504.834 531.9561)" class="st11 st12">3</text>
<text transform="matrix(1.2587 0 0 1 504.834 421.8623)" class="st11 st12">1</text>
<text transform="matrix(1.2587 0 0 1 454.3486 407.0176)" class="st11 st12">1</text>
<text transform="matrix(1.2587 0 0 1 437.1787 128.5205)" class="st11 st12">4</text>
<text transform="matrix(1.2587 0 0 1 537.9795 128.5205)" class="st11 st12">4</text>
<text transform="matrix(1.2587 0 0 1 487.5791 192.0342)" class="st11 st12">3</text>
<text transform="matrix(1.2587 0 0 1 223.9458 143.1099)" class="st11 st12">5</text>
<text transform="matrix(1.2587 0 0 1 323.998 143.1099)" class="st11 st12">3</text>
<text transform="matrix(1.2587 0 0 1 283.0737 189.2261)" class="st11 st12">1</text>
<text transform="matrix(1.2587 0 0 1 283.0737 96.9937)" class="st11 st12">1</text>
<text transform="matrix(1.2587 0 0 1 234.9282 77.8623)" class="st11 st12">1</text>
<g>
	<rect x="13.4" y="663" class="st6" width="14.2" height="13.1"/>
	<text transform="matrix(1.6551 0 0 1 35.1367 675.835)" class="st1 st12">Artificial intelligence</text>
</g>
<g>
	<rect x="13.6" y="630.7" class="st5" width="14.2" height="13.1"/>
	<text transform="matrix(1.6551 0 0 1 35.3652 643.4736)" class="st1 st12">Cybersecurity</text>
</g>
<g>
	<rect x="13.8" y="695.4" class="st7" width="14.2" height="13.1"/>
	<text transform="matrix(1.6551 0 0 1 35.5942 708.1963)" class="st1 st12">Data management &amp; Analytics</text>
</g>
<rect x="13.4" y="725.1" class="st9" width="14.2" height="13.1"/>
<text transform="matrix(1.6551 0 0 1 34.1494 737.9346)" class="st1 st12">Ecommerce &amp; Direct to Consumer</text>
<g>
	<rect x="402.9" y="666.7" class="st4" width="14.2" height="13.1"/>
	<text transform="matrix(1.6551 0 0 1 425.6523 679.4678)" class="st1 st12">Fintech</text>
</g>
<g>
	<rect x="402.2" y="634.3" class="st8" width="14.2" height="13.1"/>
	<text transform="matrix(1.6551 0 0 1 423.999 647.1064)" class="st1 st12">Health</text>
</g>
<g>
	<rect x="403.1" y="699" class="st3" width="14.2" height="13.1"/>
	<text transform="matrix(1.6551 0 0 1 424.9297 711.8291)" class="st1 st12">Internet Software &amp; ervices</text>
</g>
<g>
	<rect x="403.9" y="731.4" class="st10" width="14.2" height="13.1"/>
	<text transform="matrix(1.6551 0 0 1 425.6953 744.1904)" class="st1 st12">Supply Chain logisttics &amp; Delivery</text>
</g>
</svg>
